<svg width="608" height="334" viewBox="0 0 608 334" fill="none" xmlns="http://www.w3.org/2000/svg">
<path d="M0.09375 328V0.727263H88.9432V128.568H206.557V0.727263H295.406V328H206.557V200.159H88.9432V328H0.09375ZM362.267 331.835C346.607 331.835 332.757 329.278 320.719 324.165C308.787 318.945 299.412 311.061 292.594 300.514C285.776 289.967 282.366 276.544 282.366 260.244C282.366 246.821 284.657 235.369 289.238 225.887C293.819 216.299 300.211 208.469 308.414 202.396C316.617 196.324 326.152 191.69 337.018 188.494C347.991 185.298 359.817 183.22 372.494 182.261C386.237 181.196 397.264 179.918 405.573 178.426C413.989 176.828 420.062 174.644 423.79 171.874C427.519 168.998 429.384 165.216 429.384 160.528V159.889C429.384 153.497 426.933 148.597 422.033 145.188C417.132 141.778 410.847 140.074 403.176 140.074C394.76 140.074 387.888 141.938 382.562 145.667C377.342 149.289 374.199 154.882 373.134 162.446H291.955C293.02 147.531 297.761 133.788 306.177 121.217C314.7 108.54 327.111 98.419 343.411 90.8551C359.71 83.1847 380.058 79.3494 404.455 79.3494C422.033 79.3494 437.8 81.4268 451.756 85.5817C465.712 89.63 477.59 95.3295 487.391 102.68C497.192 109.925 504.65 118.447 509.763 128.249C514.984 137.943 517.594 148.49 517.594 159.889V328H435.136V293.483H433.219C428.318 302.645 422.352 310.049 415.321 315.695C408.396 321.342 400.46 325.443 391.511 328C382.668 330.557 372.92 331.835 362.267 331.835ZM391.031 276.224C397.743 276.224 404.028 274.839 409.888 272.07C415.854 269.3 420.701 265.305 424.43 260.085C428.158 254.864 430.023 248.526 430.023 241.068V220.614C427.679 221.572 425.175 222.478 422.512 223.33C419.955 224.183 417.185 224.982 414.202 225.727C411.326 226.473 408.237 227.165 404.934 227.805C401.738 228.444 398.382 229.03 394.866 229.562C388.048 230.628 382.455 232.386 378.087 234.836C373.826 237.18 370.63 240.109 368.499 243.625C366.475 247.034 365.463 250.869 365.463 255.131C365.463 261.949 367.86 267.169 372.654 270.791C377.448 274.413 383.574 276.224 391.031 276.224Z" fill="black"/>
<path d="M562.682 333.114C550.324 333.114 539.724 328.799 530.881 320.17C522.145 311.434 517.831 300.834 517.937 288.369C517.831 276.224 522.145 265.837 530.881 257.208C539.724 248.579 550.324 244.264 562.682 244.264C574.4 244.264 584.734 248.579 593.683 257.208C602.738 265.837 607.319 276.224 607.426 288.369C607.319 296.679 605.135 304.243 600.874 311.061C596.719 317.773 591.286 323.153 584.574 327.201C577.863 331.143 570.565 333.114 562.682 333.114Z" fill="#457B9D"/>
</svg>
